<svg width="122" height="31" viewBox="0 0 122 31" fill="none" xmlns="http://www.w3.org/2000/svg">
    <path
        d="M10.9662 23.3874C9.77418 23.3874 8.56234 22.8609 7.33063 21.808L7.09224 23H2.80114L6.85384 4.04763L11.2641 3.45164L7.68823 20.1691C8.24448 20.5664 8.81067 20.7651 9.38679 20.7651C10.5192 20.7651 11.5125 20.1095 12.3667 18.7983C13.2408 17.4871 13.9163 15.8184 14.3931 13.792C14.8699 11.7657 15.1083 9.71943 15.1083 7.65335C15.1083 5.70646 14.7209 4.28602 13.9461 3.39204C13.1912 2.4782 12.1283 2.02127 10.7576 2.02127C9.26759 2.02127 7.92662 2.31927 6.73465 2.91525C5.56254 3.49137 4.63876 4.32576 3.96331 5.4184C3.28786 6.51104 2.95013 7.79241 2.95013 9.26251C2.95013 9.99756 3.01967 10.5141 3.15873 10.8121C3.29779 11.0902 3.36732 11.2491 3.36732 11.2889C2.33428 11.2889 1.53963 11.0703 0.983378 10.6333C0.44699 10.1962 0.178796 9.49097 0.178796 8.51753C0.178796 7.16663 0.685384 5.88525 1.69856 4.67342C2.71174 3.46158 4.06264 2.48813 5.75127 1.75308C7.45976 1.01803 9.29739 0.650505 11.2641 0.650505C13.9858 0.650505 15.9923 1.45509 17.2836 3.06425C18.5749 4.67342 19.2206 6.72957 19.2206 9.23271C19.2206 11.4975 18.8332 13.7324 18.0584 15.9376C17.3035 18.1228 16.2903 19.9108 15.0189 21.3014C13.7474 22.6921 12.3965 23.3874 10.9662 23.3874ZM24.736 6.49117C24.0804 6.49117 23.5242 6.26271 23.0672 5.80579C22.6103 5.34887 22.3819 4.79261 22.3819 4.13703C22.3819 3.48144 22.6103 2.92519 23.0672 2.46827C23.5242 1.99148 24.0804 1.75308 24.736 1.75308C25.3916 1.75308 25.9478 1.99148 26.4048 2.46827C26.8816 2.92519 27.1199 3.48144 27.1199 4.13703C27.1199 4.79261 26.8816 5.34887 26.4048 5.80579C25.9478 6.26271 25.3916 6.49117 24.736 6.49117ZM22.7096 23.1788C21.7561 23.1788 20.9813 22.8808 20.3853 22.2848C19.8092 21.6888 19.5211 20.7948 19.5211 19.6029C19.5211 19.1062 19.6006 18.4606 19.7595 17.6659L21.7859 8.10034H26.077L23.9314 18.2321C23.852 18.5301 23.8122 18.848 23.8122 19.1857C23.8122 19.583 23.9016 19.8711 24.0804 20.0499C24.2791 20.2088 24.5969 20.2883 25.034 20.2883C25.6101 20.2883 26.1465 20.0499 26.6432 19.5731C27.1398 19.0764 27.4974 18.4407 27.7159 17.6659H28.9675C28.2325 19.8115 27.2888 21.2716 26.1366 22.0464C24.9843 22.8013 23.842 23.1788 22.7096 23.1788ZM29.7304 8.10034H34.0215L33.6341 9.9479C34.3096 9.35191 34.9155 8.89499 35.4519 8.57713C36.0081 8.25927 36.6041 8.10034 37.2398 8.10034C37.8756 8.10034 38.3722 8.31887 38.7298 8.75592C39.1073 9.19298 39.296 9.71943 39.296 10.3353C39.296 10.9114 39.1073 11.418 38.7298 11.8551C38.3523 12.2921 37.8259 12.5106 37.1504 12.5106C36.7134 12.5106 36.4154 12.4113 36.2565 12.2126C36.1174 11.9941 36.0081 11.6862 35.9287 11.2889C35.8691 11.0306 35.8095 10.8419 35.7499 10.7227C35.6903 10.6035 35.581 10.5439 35.4221 10.5439C35.0049 10.5439 34.6473 10.6333 34.3493 10.8121C34.0712 10.971 33.7037 11.2591 33.2467 11.6763L30.8628 23H26.5717L29.7304 8.10034ZM41.709 23.1788C40.6959 23.1788 39.9409 22.8709 39.4443 22.255C38.9675 21.6392 38.7291 20.8246 38.7291 19.8115C38.7291 19.295 38.7887 18.7685 38.9079 18.2321L40.8151 9.29231H39.8317L40.0701 8.10034H41.0535L41.9474 3.98803L46.3577 3.39204C46.1789 4.14696 46.0796 4.59395 46.0597 4.73301C45.9207 5.28927 45.6823 6.41171 45.3446 8.10034H47.1325L46.8941 9.29231H45.1062L43.199 18.2321C43.0997 18.6692 43.05 19.0168 43.05 19.2751C43.05 19.9903 43.3977 20.3479 44.093 20.3479C44.4506 20.3479 44.7088 20.3181 44.8678 20.2585C44.4704 21.4107 44.0036 22.1855 43.4672 22.5828C42.9308 22.9801 42.3448 23.1788 41.709 23.1788ZM54.4443 23.5364C53.1927 23.5364 52.0902 23.3179 51.1366 22.8808C50.183 22.4437 49.4479 21.8378 48.9314 21.063C48.4149 20.2684 48.1566 19.3545 48.1566 18.3215C48.1566 17.4474 48.3354 16.6527 48.693 15.9376C49.0705 15.2224 49.5671 14.6562 50.183 14.239C50.8187 13.8218 51.514 13.6132 52.2689 13.6132C52.9643 13.6132 53.5503 13.792 54.0271 14.1496C54.5039 14.4873 54.8019 14.9641 54.9211 15.58C53.888 15.58 53.0636 15.8581 52.4477 16.4143C51.8319 16.9507 51.524 17.6858 51.524 18.6195C51.524 19.4737 51.7822 20.1591 52.2987 20.6757C52.8153 21.1922 53.5007 21.4504 54.3549 21.4504C55.4078 21.4504 56.272 21.1028 56.9474 20.4075C57.6428 19.6923 57.9904 18.7983 57.9904 17.7255C57.9904 16.7918 57.7322 15.9078 57.2156 15.0734C56.6991 14.239 55.9243 13.2258 54.8913 12.0338C53.8185 10.8021 53.004 9.74923 52.4477 8.87512C51.9114 7.98114 51.6432 7.00769 51.6432 5.95479C51.6432 4.92174 51.9312 3.99796 52.5073 3.18345C53.0835 2.34907 53.8781 1.69348 54.8913 1.21669C55.9045 0.739904 57.0468 0.501509 58.3182 0.501509C59.9274 0.501509 61.2087 0.878967 62.1623 1.63388C63.1358 2.3888 63.6225 3.40198 63.6225 4.67342C63.6225 5.5078 63.4139 6.18325 62.9967 6.69977C62.5795 7.21629 62.0332 7.47455 61.3577 7.47455C60.6028 7.47455 59.9969 7.16662 59.54 6.55077C59.9174 6.27264 60.2154 5.90512 60.434 5.4482C60.6525 4.99127 60.7618 4.51448 60.7618 4.01783C60.7618 3.38211 60.573 2.87552 60.1956 2.49806C59.8181 2.12061 59.3016 1.93188 58.646 1.93188C57.8514 1.93188 57.1958 2.21994 56.6792 2.79606C56.1826 3.35231 55.9343 4.0675 55.9343 4.94161C55.9343 5.73626 56.1627 6.48124 56.6196 7.17656C57.0766 7.85201 57.7918 8.72612 58.7652 9.7989C59.5598 10.6531 60.1956 11.3882 60.6724 12.004C61.169 12.6199 61.5862 13.3351 61.9239 14.1496C62.2815 14.9442 62.4603 15.8084 62.4603 16.7421C62.4603 18.0136 62.1027 19.1658 61.3875 20.1989C60.6922 21.2319 59.7287 22.0464 58.497 22.6424C57.2852 23.2384 55.9343 23.5364 54.4443 23.5364ZM67.0885 23.1788C66.1349 23.1788 65.3602 22.8808 64.7642 22.2848C64.1881 21.6888 63.9 20.7948 63.9 19.6029C63.9 19.1062 63.9795 18.4606 64.1384 17.6659L66.1647 8.10034H70.4558L68.3103 18.2321C68.2507 18.5301 68.2209 18.8082 68.2209 19.0665C68.2209 19.881 68.5189 20.2883 69.1149 20.2883C69.6711 20.2883 70.1479 20.0598 70.5452 19.6029C70.9426 19.1261 71.2604 18.4804 71.4988 17.6659L73.5252 8.10034H77.8163L75.6707 18.2321C75.5913 18.5301 75.5515 18.848 75.5515 19.1857C75.5515 19.583 75.6409 19.8711 75.8197 20.0499C76.0184 20.2088 76.3362 20.2883 76.7733 20.2883C77.3296 20.2883 77.8063 20.0499 78.2037 19.5731C78.6209 19.0963 78.9487 18.4606 79.187 17.6659H80.4386C79.7036 19.8115 78.7897 21.2716 77.6971 22.0464C76.6243 22.8013 75.5416 23.1788 74.449 23.1788C73.5947 23.1788 72.9093 22.9404 72.3928 22.4636C71.8961 21.9868 71.5982 21.2816 71.4988 20.3479C70.8234 21.4405 70.1082 22.1855 69.3533 22.5828C68.6182 22.9801 67.8633 23.1788 67.0885 23.1788ZM81.2099 8.10034H85.501L85.1136 9.9479C85.7891 9.35191 86.395 8.89499 86.9314 8.57713C87.4876 8.25927 88.0836 8.10034 88.7193 8.10034C89.3551 8.10034 89.8517 8.31887 90.2093 8.75592C90.5868 9.19298 90.7755 9.71943 90.7755 10.3353C90.7755 10.9114 90.5868 11.418 90.2093 11.8551C89.8318 12.2921 89.3054 12.5106 88.6299 12.5106C88.1929 12.5106 87.8949 12.4113 87.736 12.2126C87.5969 11.9941 87.4876 11.6862 87.4082 11.2889C87.3486 11.0306 87.289 10.8419 87.2294 10.7227C87.1698 10.6035 87.0605 10.5439 86.9016 10.5439C86.4844 10.5439 86.1268 10.6333 85.8288 10.8121C85.5507 10.971 85.1832 11.2591 84.7262 11.6763L82.3423 23H78.0512L81.2099 8.10034ZM87.7055 30.4498C86.7718 30.4498 85.9572 30.1419 85.2619 29.5261C84.5467 28.9301 84.1891 28.1652 84.1891 27.2315C84.1891 26.3773 84.4077 25.672 84.8447 25.1158C85.2818 24.5595 85.848 24.1125 86.5433 23.7748C87.2386 23.4569 88.1624 23.1192 89.3146 22.7616L92.9203 5.74619C93.3177 3.83903 94.013 2.51793 95.0063 1.78288C96.0195 1.04783 97.132 0.680306 98.3438 0.680306C99.2775 0.680306 100.092 0.988232 100.787 1.60408C101.503 2.20007 101.86 2.96492 101.86 3.89863C101.86 4.35556 101.83 4.76281 101.771 5.1204H100.37C100.41 4.68335 100.43 4.41515 100.43 4.31582C100.43 3.99796 100.321 3.74964 100.102 3.57084C99.8835 3.39204 99.6153 3.30265 99.2974 3.30265C98.8802 3.30265 98.473 3.49138 98.0756 3.86883C97.6783 4.22643 97.3902 4.85221 97.2115 5.74619L96.7049 8.10034H98.8802L98.6716 9.29231H96.4665L93.0395 25.3839C92.6422 27.311 91.9568 28.6321 90.9834 29.3473C90.0099 30.0823 88.9173 30.4498 87.7055 30.4498ZM87.0201 27.7977C87.8147 27.7977 88.3809 27.0229 88.7186 25.4733L89.106 23.745C88.0531 24.1026 87.2485 24.5098 86.6923 24.9668C86.1162 25.4435 85.8281 26.0594 85.8281 26.8143C85.8281 27.0527 85.9473 27.2712 86.1857 27.4699C86.4241 27.6884 86.7022 27.7977 87.0201 27.7977ZM102.593 23.1788C101.123 23.1788 99.9808 22.8013 99.1663 22.0464C98.3518 21.2716 97.9446 20.0697 97.9446 18.4407C97.9446 17.0699 98.2128 15.5601 98.7491 13.9112C99.2855 12.2623 100.16 10.8419 101.371 9.6499C102.583 8.43806 104.123 7.83214 105.99 7.83214C108.176 7.83214 109.268 8.78572 109.268 10.6929C109.268 11.8054 108.95 12.8285 108.315 13.7622C107.679 14.6959 106.835 15.4508 105.782 16.027C104.729 16.5832 103.606 16.9011 102.414 16.9805C102.375 17.5765 102.355 17.9738 102.355 18.1725C102.355 19.146 102.524 19.8115 102.861 20.1691C103.199 20.5068 103.745 20.6757 104.5 20.6757C105.573 20.6757 106.487 20.4273 107.242 19.9307C108.017 19.434 108.861 18.6791 109.775 17.6659H110.788C108.583 21.3412 105.851 23.1788 102.593 23.1788ZM102.653 15.5502C103.388 15.5104 104.083 15.2522 104.739 14.7754C105.414 14.2986 105.951 13.6927 106.348 12.9576C106.765 12.2226 106.974 11.4478 106.974 10.6333C106.974 9.81876 106.725 9.41151 106.229 9.41151C105.514 9.41151 104.808 10.0373 104.113 11.2889C103.438 12.5404 102.951 13.9609 102.653 15.5502ZM111.795 8.10034H116.086L115.699 9.9479C116.374 9.35191 116.98 8.89499 117.516 8.57713C118.073 8.25927 118.669 8.10034 119.304 8.10034C119.94 8.10034 120.437 8.31887 120.794 8.75592C121.172 9.19298 121.361 9.71943 121.361 10.3353C121.361 10.9114 121.172 11.418 120.794 11.8551C120.417 12.2921 119.89 12.5106 119.215 12.5106C118.778 12.5106 118.48 12.4113 118.321 12.2126C118.182 11.9941 118.073 11.6862 117.993 11.2889C117.934 11.0306 117.874 10.8419 117.814 10.7227C117.755 10.6035 117.646 10.5439 117.487 10.5439C117.069 10.5439 116.712 10.6333 116.414 10.8121C116.136 10.971 115.768 11.2591 115.311 11.6763L112.927 23H108.636L111.795 8.10034Z"
        fill="black" />
</svg>